<svg width="20" height="17" viewBox="0 0 20 17" fill="none" xmlns="http://www.w3.org/2000/svg">
<g clip-path="url(#clip0_23_271)">
<path d="M12.6858 16.1981L13.9418 12.6667" stroke="#44132E" stroke-width="0.483092" stroke-linecap="round" stroke-linejoin="round"/>
<path d="M0.241455 13.8889L7.77769 14.285L12.6328 7.70048L11.0675 5.31884L5.76319 4.54106L1.12068 10.4589L0.241455 13.8889V13.8889" stroke="#44132E" stroke-width="0.483092" stroke-linecap="round" stroke-linejoin="round"/>
<path d="M1.09644 10.5266L6.83557 10.8696L6.90803 10.7729L11.0675 5.31884" stroke="#44132E" stroke-width="0.483092" stroke-linecap="round" stroke-linejoin="round"/>
<path d="M7.77772 14.285L6.83569 10.8696" stroke="#44132E" stroke-width="0.483092" stroke-linecap="round" stroke-linejoin="round"/>
<path d="M11.8017 6.42995L14.7438 5.61353L18.8162 11.5556L19.7583 14.7198L12.6858 16.1981L9.61816 12.1981" stroke="#44132E" stroke-width="0.483092" stroke-linecap="round" stroke-linejoin="round"/>
<path d="M11.541 9.18841L13.942 12.6667L18.8164 11.5556" stroke="#44132E" stroke-width="0.483092" stroke-linecap="round" stroke-linejoin="round"/>
<path d="M7.40576 2.27536L8.57001 3.44444" stroke="#44132E" stroke-width="0.483092" stroke-linecap="round" stroke-linejoin="round"/>
<path d="M10.9902 0.241547V2.51208" stroke="#44132E" stroke-width="0.483092" stroke-linecap="round" stroke-linejoin="round"/>
<path d="M14.7342 1.82609L13.1255 3.43478" stroke="#44132E" stroke-width="0.483092" stroke-linecap="round" stroke-linejoin="round"/>
</g>
<defs>
<clipPath id="clip0_23_271">
<rect width="20" height="16.4396" fill="white"/>
</clipPath>
</defs>
</svg>
